<?xml version="1.0" encoding="UTF-8"?>
<svg xmlns="http://www.w3.org/2000/svg" xmlns:xlink="http://www.w3.org/1999/xlink" width="30px" height="30px" viewBox="0 0 30 30" version="1.1">
<g id="surface1">
<path style=" stroke:none;fill-rule:nonzero;fill:rgb(100%,0%,0%);fill-opacity:1;" d="M 26.25 6.5625 L 21.800781 6.5625 C 21.128906 6.5625 20.535156 6.136719 20.320312 5.5 L 19.921875 4.3125 C 19.628906 3.417969 18.792969 2.8125 17.847656 2.8125 L 12.152344 2.8125 C 11.207031 2.8125 10.371094 3.417969 10.078125 4.3125 L 9.679688 5.496094 C 9.46875 6.136719 8.871094 6.566406 8.199219 6.566406 L 3.75 6.566406 C 3.230469 6.566406 2.8125 6.984375 2.8125 7.503906 C 2.8125 8.023438 3.230469 8.441406 3.75 8.441406 L 5.375 8.441406 L 6.332031 22.816406 C 6.503906 25.277344 8.546875 27.183594 11.011719 27.191406 L 18.992188 27.191406 C 21.460938 27.183594 23.5 25.277344 23.671875 22.816406 L 24.625 8.4375 L 26.25 8.4375 C 26.769531 8.4375 27.1875 8.019531 27.1875 7.5 C 27.1875 6.980469 26.769531 6.5625 26.25 6.5625 Z M 11.855469 4.902344 L 17.847656 4.6875 L 18.542969 6.085938 C 18.597656 6.25 18.664062 6.410156 18.742188 6.5625 L 11.257812 6.5625 C 11.335938 6.410156 11.402344 6.25 11.457031 6.085938 Z M 21.796875 22.6875 C 21.695312 24.164062 20.46875 25.308594 18.992188 25.3125 L 11.007812 25.3125 C 9.53125 25.308594 8.304688 24.164062 8.203125 22.6875 L 7.25 8.4375 L 8.195312 8.4375 C 8.328125 8.433594 8.460938 8.425781 8.59375 8.40625 L 21.25 8.4375 C 21.535156 8.425781 21.667969 8.433594 21.800781 8.4375 L 22.75 8.4375 Z M 18.4375 13.75 L 18.4375 20 C 18.4375 20.519531 18.019531 20.9375 17.5 20.9375 C 16.980469 20.9375 16.5625 20.519531 16.5625 20 L 16.5625 13.75 C 16.5625 13.230469 16.980469 12.8125 17.5 12.8125 C 18.019531 12.8125 18.4375 13.230469 18.4375 13.75 Z M 13.4375 13.75 L 13.4375 20 C 13.4375 20.519531 13.019531 20.9375 12.5 20.9375 C 11.980469 20.9375 11.5625 20.519531 11.5625 20 L 11.5625 13.75 C 11.5625 13.230469 11.980469 12.8125 12.5 12.8125 C 13.019531 12.8125 13.4375 13.230469 13.4375 13.75 Z M 13.4375 13.75 "/>
</g>
</svg>
